<?xml version="1.0" standalone="no"?>
<!DOCTYPE svg PUBLIC "-//W3C//DTD SVG 20010904//EN"
 "http://www.w3.org/TR/2001/REC-SVG-20010904/DTD/svg10.dtd">
<svg version="1.0" xmlns="http://www.w3.org/2000/svg"
 width="200.000000pt" height="200.000000pt" viewBox="0 0 200.000000 200.000000"
 preserveAspectRatio="xMidYMid meet">
<metadata>
Created by potrace 1.14, written by Peter Selinger 2001-2017
</metadata>
<g transform="translate(0.000000,200.000000) scale(0.100000,-0.100000)"
fill="#000000" stroke="none">
<path d="M0 1000 l0 -1000 995 0 995 0 0 1000 0 1000 -995 0 -995 0 0 -1000z
m1460 -7 c228 -482 417 -880 418 -885 2 -5 -60 -7 -138 -6 -114 2 -145 6 -152
18 -4 8 -79 159 -164 335 -86 176 -219 448 -296 605 l-140 285 -30 -60 c-16
-33 -152 -312 -301 -620 l-273 -560 -137 -3 c-75 -1 -137 -1 -137 1 0 2 43 94
96 203 53 109 136 280 183 379 48 99 197 406 331 683 l243 502 41 0 42 0 414
-877z"/>
</g>
</svg>
